<?xml version="1.0" encoding="UTF-8"?>
<svg id="Layer_1" data-name="Layer 1" xmlns="http://www.w3.org/2000/svg" viewBox="0 0 891.98 377.7">
  <defs>
    <style>
      .cls-1 {
        letter-spacing: -.03em;
      }

      .cls-2 {
        fill: #e9242a;
      }

      .cls-3, .cls-4 {
        fill: #1c3e71;
      }

      .cls-5 {
        letter-spacing: -.05em;
      }

      .cls-6 {
        letter-spacing: -.03em;
      }

      .cls-4 {
        font-family: SFPro-LightItalic, 'SF Pro';
        font-size: 76.03px;
        font-style: italic;
        font-variation-settings: 'opsz' 28, 'YAXS' 400, 'wght' 276;
        font-weight: 300;
      }
    </style>
  </defs>
  <path class="cls-2" d="m749.83,236.6c-3.79-36.94-8.49-73.82-13.86-110.57-2.33-15.98-15.03-32.85-38.34-31.89-29.09,1.21-58.28.43-87.42.5-36.88.08-73.75.09-110.63.26-14.8.06-23.41,7.04-27.12,21.54-.68,2.67-1.24,5.38-1.85,8.02-32.34.31-64.02.64-95.66.93l-10.52,9.81c.65.05,1.32.09,1.99.09,32.96.05,65.91.29,98.87-.08,5.74-.06,7.32,1.72,7.28,6.76-.03,2.68.29,5.37.47,8.41-42.34.26-83.97.54-125.79.82l-12.34,11.5c50.71-.19,100.92-.37,151.61-.56-.64-6.28-1.21-11.62-1.72-16.97-.54-5.65-1.3-11.3-1.49-16.96-.48-14.68,6.21-21.64,20.45-21.68,64.98-.14,129.98-.25,194.96-.43,14.41-.03,22.84,5.23,25.23,19.57,4.2,25.1,6.84,50.47,10.26,76.54-43.23.33-85,.71-126.76.81-2.13,0-5.2-2.05-6.22-3.97-4.81-9.17-11.84-16.46-21.61-18.53-11.67-2.47-23.88-3.34-35.84-3.29-59.43.19-118.84.92-178.25,1.43-16.03.14-32.06.16-48.08.34l-10.26,9.54c3.13,0,6.28.09,9.43.08,64.07-.28,128.13-.59,192.21-.84,19.78-.08,39.6-.45,59.38.22,14.01.47,22.85,8.86,24.28,21.43,2.72,24.02,5.28,48.05,7.84,72.09.08.76.16,1.44.25,2.08h10.64c-.26-4.36-.53-8.8-.81-13.45,3.96-.12,6.78-.26,9.6-.29,33.27-.34,66.53-.59,99.8-1.04,20.37-.26,32.1-11.87,30.02-32.21Zm-31.71,20.26c-34.24.43-68.5.7-102.73,1.3-5.35.09-7.51-1.96-7.88-6.94-.47-6.35-1.09-12.68-1.72-19.91,44.11-.34,87.53-.7,130.81-1.04,4.58,16.23-2.64,26.39-18.48,26.58Z"/>
  <text class="cls-4" transform="translate(179.55 259.22)"><tspan x="0" y="0">E</tspan><tspan class="cls-6" x="40.91" y="0">A</tspan><tspan class="cls-5" x="85.49" y="0">S</tspan><tspan x="126.89" y="0">Y </tspan><tspan class="cls-1" x="189.92" y="0">S</tspan><tspan x="232.39" y="0">WIPE</tspan></text>
  <polygon class="cls-3" points="603.36 201.36 605.78 231.32 736.59 230.28 734.2 202.21 603.36 201.36"/>
  <polygon class="cls-3" points="334.91 162.71 347.25 151.21 473.04 150.39 473.04 162.2 334.91 162.71"/>
</svg>